<svg xmlns="http://www.w3.org/2000/svg" width="600" height="900" viewBox="0 0 600 900" role="img" aria-labelledby="title desc">
  <title id="title">Curso de español A1: Primeros pasos</title>
  <desc id="desc">Cubierta azul, coral y amarilla con un camino de palabras que conduce a una puerta luminosa.</desc>
  <rect width="600" height="900" fill="#102a43"/>
  <circle cx="500" cy="104" r="66" fill="#ffd166"/>
  <circle cx="500" cy="104" r="45" fill="#ff6b5f"/>
  <path d="M0 0h26v900H0zM574 0h26v900h-26z" fill="#ffd166"/>

  <text x="58" y="82" fill="#ffd166" font-family="sans-serif" font-size="24" font-weight="700" letter-spacing="4">WORD HUNTER</text>
  <text x="58" y="168" fill="#ffffff" font-family="sans-serif" font-size="31" font-weight="700" letter-spacing="1">CURSO DE ESPAÑOL</text>
  <text x="54" y="229" fill="#ff6b5f" font-family="sans-serif" font-size="53" font-weight="900">PRIMEROS</text>
  <text x="58" y="276" fill="#b9e4e4" font-family="sans-serif" font-size="39" font-weight="700" letter-spacing="6">PASOS</text>

  <g transform="translate(58 328)">
    <rect width="206" height="180" rx="18" fill="#f7f1df"/>
    <path d="M34 53h96M34 87h138M34 121h78" stroke="#2ba6a6" stroke-width="13" stroke-linecap="round"/>
    <path d="M136 180l38-38h-38z" fill="#f7f1df"/>
    <circle cx="176" cy="56" r="13" fill="#ff6b5f"/>
  </g>
  <g transform="translate(330 366)">
    <rect width="212" height="154" rx="77" fill="#2ba6a6"/>
    <path d="M50 58h112M50 94h72" stroke="#ffffff" stroke-width="12" stroke-linecap="round"/>
    <path d="M58 148l-12 46 48-42" fill="#2ba6a6"/>
  </g>

  <path d="M91 747C166 669 212 706 278 644s123-18 218-104" fill="none" stroke="#ff6b5f" stroke-width="68" stroke-linecap="round"/>
  <path d="M91 747C166 669 212 706 278 644s123-18 218-104" fill="none" stroke="#ffd166" stroke-width="7" stroke-dasharray="5 22" stroke-linecap="round"/>
  <g fill="#f7f1df" stroke="#102a43" stroke-width="5">
    <rect x="69" y="713" width="70" height="70" rx="12"/>
    <rect x="183" y="657" width="70" height="70" rx="12"/>
    <rect x="291" y="596" width="70" height="70" rx="12"/>
  </g>
  <path d="M426 489h116v184H426z" fill="#f7f1df" stroke="#ffd166" stroke-width="8"/>
  <path d="M450 520h68v153h-68z" fill="#ff6b5f"/>
  <circle cx="503" cy="596" r="7" fill="#ffd166"/>

  <rect x="56" y="792" width="488" height="78" rx="18" fill="#f7f1df"/>
  <text x="300" y="851" text-anchor="middle" fill="#102a43" font-family="sans-serif" font-size="62" font-weight="900" letter-spacing="9">A1</text>
</svg>
