<svg xmlns="http://www.w3.org/2000/svg" viewBox="0 0 600 900" role="img" aria-labelledby="title desc">
  <title id="title">Ἀνάγνωσμα A1: Ὁ λύχνος τοῦ Κεραμεικοῦ</title>
  <desc id="desc">Κάλυμμα Ἑλληνικοῦ ἀναγνώσματος βαθμοῦ A1 μετὰ Ἰωνικοῦ κίονος, μαιάνδρου καὶ γραμμάτων.</desc>
  <defs>
    <linearGradient id="bg-a1" x1="0" y1="0" x2="0" y2="1">
      <stop offset="0" stop-color="#17283a"/>
      <stop offset="1" stop-color="#08131f"/>
    </linearGradient>
    <pattern id="meander-a1" width="48" height="24" patternUnits="userSpaceOnUse">
      <path d="M0 4h36v12H12v-6h18" fill="none" stroke="#e4b873" stroke-width="4"/>
    </pattern>
    <filter id="shadow-a1" x="-30%" y="-30%" width="160%" height="160%">
      <feDropShadow dx="0" dy="8" stdDeviation="7" flood-color="#000000" flood-opacity=".4"/>
    </filter>
  </defs>
  <rect width="600" height="900" fill="url(#bg-a1)"/>
  <rect x="28" y="28" width="544" height="844" rx="4" fill="none" stroke="#e4b873" stroke-width="2"/>
  <rect x="28" y="50" width="544" height="24" fill="url(#meander-a1)" opacity=".9"/>
  <rect x="28" y="790" width="544" height="24" fill="url(#meander-a1)" opacity=".9"/>
  <circle cx="466" cy="475" r="154" fill="#b84b35" opacity=".92"/>
  <circle cx="466" cy="475" r="132" fill="none" stroke="#f0d59c" stroke-width="3" opacity=".72"/>
  <g transform="translate(376 338)" fill="#f0d59c" filter="url(#shadow-a1)">
    <path d="M28 22h124l18 16-18 16H28L10 38Z"/>
    <path d="M43 58h94v18H43Z"/>
    <path d="M54 82h72l-7 210H61Z"/>
    <path d="M47 296h86l12 17H35Z"/>
    <path d="M27 317h126v20H27Z"/>
    <path d="M51 88c18 18 18 38 0 56M79 88c18 18 18 38 0 56M107 88c18 18 18 38 0 56" fill="none" stroke="#b84b35" stroke-width="5" opacity=".8"/>
  </g>
  <g font-family="Georgia, 'Times New Roman', serif" font-weight="700" text-anchor="middle">
    <g fill="#f0d59c" font-size="25">
      <circle cx="98" cy="646" r="30" fill="#b84b35" stroke="#e4b873" stroke-width="2"/>
      <text x="98" y="655">Α</text>
      <circle cx="166" cy="598" r="27" fill="#b84b35" stroke="#e4b873" stroke-width="2"/>
      <text x="166" y="607">Β</text>
      <circle cx="226" cy="539" r="24" fill="#b84b35" stroke="#e4b873" stroke-width="2"/>
      <text x="226" y="548">Γ</text>
      <circle cx="278" cy="474" r="21" fill="#b84b35" stroke="#e4b873" stroke-width="2"/>
      <text x="278" y="483">Δ</text>
    </g>
    <text x="54" y="145" fill="#e4b873" font-size="24" text-anchor="start" letter-spacing="1">ΕΛΛΗΝΙΚΟΝ ΑΝΑΓΝΩΣΜΑ</text>
    <text x="48" y="300" fill="#fff8e7" font-size="142" text-anchor="start">A1</text>
    <text x="55" y="349" fill="#d96b50" font-size="27" text-anchor="start">ΤΑ ΠΡΩΤΑ ΒΗΜΑΤΑ</text>
  </g>
  <path d="M56 374h238" stroke="#e4b873" stroke-width="5"/>
  <g transform="translate(54 833)" font-family="Arial, Helvetica, sans-serif" font-weight="700">
    <text x="0" y="25" fill="#fff8e7" font-size="24" letter-spacing="5">WORD HUNTER</text>
    <circle cx="466" cy="14" r="15" fill="none" stroke="#d96b50" stroke-width="5"/>
    <path d="M477 25l16 16" stroke="#d96b50" stroke-width="5" stroke-linecap="round"/>
  </g>
</svg>
