<svg xmlns="http://www.w3.org/2000/svg" width="600" height="900" viewBox="0 0 600 900" role="img" aria-labelledby="title desc">
  <title id="title">よく使う日本語1000語の物語</title>
  <desc id="desc">開いた本から町へ続く道と、朝から夜へ移る空を描いた表紙</desc>
  <defs>
    <linearGradient id="sky" x1="0" y1="0" x2="0" y2="1">
      <stop offset="0" stop-color="#10284f"/>
      <stop offset="0.58" stop-color="#247c94"/>
      <stop offset="1" stop-color="#f2b24a"/>
    </linearGradient>
    <linearGradient id="road" x1="0" y1="0" x2="0" y2="1">
      <stop offset="0" stop-color="#f8d77a"/>
      <stop offset="1" stop-color="#fff8dc"/>
    </linearGradient>
  </defs>
  <rect width="600" height="900" fill="#f7f0dc"/>
  <rect x="28" y="28" width="544" height="844" rx="24" fill="url(#sky)"/>

  <circle cx="476" cy="125" r="38" fill="#fff2b8"/>
  <circle cx="490" cy="112" r="38" fill="#10284f"/>
  <circle cx="95" cy="120" r="3" fill="#fff"/>
  <circle cx="142" cy="84" r="4" fill="#fff"/>
  <circle cx="530" cy="205" r="3" fill="#fff"/>

  <path d="M70 506 L70 418 L116 382 L162 418 L162 506 Z" fill="#173957"/>
  <rect x="91" y="447" width="24" height="59" fill="#f9cf69"/>
  <rect x="126" y="427" width="18" height="22" fill="#f9cf69"/>
  <path d="M174 506 L174 443 L218 413 L262 443 L262 506 Z" fill="#214d64"/>
  <rect x="198" y="454" width="20" height="21" fill="#ffd978"/>
  <rect x="228" y="454" width="20" height="21" fill="#ffd978"/>
  <path d="M415 506 L415 429 L465 391 L515 429 L515 506 Z" fill="#173957"/>
  <rect x="440" y="451" width="22" height="55" fill="#f9cf69"/>
  <rect x="475" y="438" width="20" height="22" fill="#f9cf69"/>
  <path d="M330 506 L330 368 L360 322 L390 368 L390 506 Z" fill="#173957"/>
  <rect x="349" y="389" width="22" height="46" fill="#ffd978"/>
  <path d="M315 506 C318 459 339 426 360 426 C381 426 402 459 405 506 Z" fill="#f2b24a"/>

  <path d="M275 506 C286 467 313 442 360 425 C336 475 331 519 342 570 L258 570 C272 549 276 529 275 506 Z" fill="url(#road)"/>
  <path d="M325 506 C321 472 330 446 360 425" fill="none" stroke="#fff8dc" stroke-width="5" stroke-dasharray="12 12"/>

  <path d="M64 695 Q178 640 296 704 L296 822 Q178 756 64 812 Z" fill="#fffdf3" stroke="#10284f" stroke-width="6"/>
  <path d="M536 695 Q422 640 304 704 L304 822 Q422 756 536 812 Z" fill="#fffdf3" stroke="#10284f" stroke-width="6"/>
  <path d="M300 704 L300 822" stroke="#10284f" stroke-width="7"/>
  <path d="M86 716 Q183 680 274 721" fill="none" stroke="#e6b84b" stroke-width="5"/>
  <path d="M514 716 Q417 680 326 721" fill="none" stroke="#e6b84b" stroke-width="5"/>
  <path d="M104 749 Q188 720 267 752" fill="none" stroke="#8bb6ad" stroke-width="4"/>
  <path d="M496 749 Q412 720 333 752" fill="none" stroke="#8bb6ad" stroke-width="4"/>

  <rect x="66" y="168" width="468" height="170" rx="18" fill="#f7f0dc"/>
  <text x="300" y="219" text-anchor="middle" fill="#10284f" font-family="sans-serif" font-size="34" font-weight="700" letter-spacing="2">よく使う日本語</text>
  <text x="300" y="281" text-anchor="middle" fill="#d44b32" font-family="sans-serif" font-size="54" font-weight="800" letter-spacing="3">1000語の物語</text>
  <path d="M152 307 H448" stroke="#e6b84b" stroke-width="7" stroke-linecap="round"/>
  <text x="300" y="852" text-anchor="middle" fill="#fffdf3" font-family="sans-serif" font-size="19" font-weight="600" letter-spacing="2">WORD HUNTER ORIGINALS</text>
</svg>
