<svg xmlns="http://www.w3.org/2000/svg" viewBox="0 0 600 900" role="img" aria-labelledby="title desc">
  <title id="title">LIMUS SUB AQUA</title>
  <desc id="desc">Tegumentum libri Latini ad legendum gradu B2, rostris, volumine aperto et columnis aureis ornatum.</desc>
  <rect width="600" height="900" fill="#241f34"/>
  <rect x="28" y="28" width="544" height="844" rx="8" fill="none" stroke="#d8ad4a" stroke-width="4"/>
  <circle cx="472" cy="161" r="61" fill="#a8483f"/>
  <g transform="translate(68 376)" stroke="#171321" stroke-width="6" stroke-linejoin="round">
    <rect x="18" y="61" width="74" height="250" fill="#e3d6b9"/>
    <rect x="195" y="61" width="74" height="250" fill="#e3d6b9"/>
    <rect x="372" y="61" width="74" height="250" fill="#e3d6b9"/>
    <path d="M0 61H110L97 27H13ZM177 61H287L274 27H190ZM354 61H464L451 27H367Z" fill="#d8ad4a"/>
    <path d="M0 311H464V349H0Z" fill="#a8483f"/>
    <path d="M119 216Q177 192 224 227V321Q175 293 119 311Z" fill="#f0e4c8"/>
    <path d="M345 216Q287 192 240 227V321Q289 293 345 311Z" fill="#f0e4c8"/>
    <path d="M232 228V322" fill="none"/>
  </g>
  <path d="M123 733H477L446 684H154Z" fill="#d8ad4a" stroke="#171321" stroke-width="6"/>
  <path d="M166 684H434L413 643H187Z" fill="#a8483f" stroke="#171321" stroke-width="6"/>
  <g fill="#f0e4c8" font-family="Georgia, 'Times New Roman', serif">
    <text x="58" y="98" font-size="18" font-weight="700" letter-spacing="4" fill="#d8ad4a">WORD HUNTER</text>
    <text x="58" y="178" font-size="39" font-weight="700">LIBER LATINUS</text>
    <text x="58" y="224" font-size="39" font-weight="700">AD LEGENDUM</text>
    <text x="58" y="274" font-size="22" font-style="italic" fill="#d8ad4a">Verba, Testes, Civitas</text>
  </g>
  <g transform="translate(476 292)">
    <circle r="64" fill="#d8ad4a" stroke="#171321" stroke-width="5"/>
    <circle r="51" fill="none" stroke="#a8483f" stroke-width="4" stroke-dasharray="5 7"/>
    <text x="0" y="17" text-anchor="middle" fill="#241f34" font-family="Arial, sans-serif" font-size="48" font-weight="800">B2</text>
  </g>
  <g fill="#f0e4c8" font-family="Arial, sans-serif">
    <text x="58" y="824" font-size="17" font-weight="700" letter-spacing="3">WORD HUNTER ORIGINALS</text>
    <text x="542" y="824" text-anchor="end" font-size="15">XXIV CAPITULA</text>
  </g>
</svg>
