<svg xmlns="http://www.w3.org/2000/svg" width="600" height="900" viewBox="0 0 600 900" role="img" aria-labelledby="title desc">
  <title id="title">Самостійно українською. Читанка B1</title>
  <desc id="desc">Сливово-помаранчева обкладинка української читанки B1 з мостом між сторінками та пов’язаними точками як символами самостійного зв’язного читання.</desc>
  <defs>
    <linearGradient id="b1-bg" x1="0" y1="0" x2="1" y2="1">
      <stop offset="0" stop-color="#34214f"/>
      <stop offset="1" stop-color="#783d63"/>
    </linearGradient>
    <linearGradient id="b1-sun" x1="0" y1="0" x2="0" y2="1">
      <stop offset="0" stop-color="#ffd58a"/>
      <stop offset="1" stop-color="#ed875e"/>
    </linearGradient>
    <pattern id="b1-lines" width="52" height="52" patternUnits="userSpaceOnUse" patternTransform="rotate(30)">
      <path d="M0 0V52" stroke="#ffffff" stroke-width="2" opacity=".07"/>
    </pattern>
  </defs>
  <rect width="600" height="900" fill="url(#b1-bg)"/>
  <rect width="600" height="900" fill="url(#b1-lines)"/>
  <rect x="25" y="25" width="550" height="850" rx="22" fill="none" stroke="#fff4e8" stroke-width="3"/>
  <path d="M25 158H575" stroke="#f0a16b" stroke-width="9"/>
  <rect x="60" y="54" width="270" height="36" rx="18" fill="#c95368"/>
  <text x="195" y="78" fill="#ffffff" text-anchor="middle" font-family="Arial, Helvetica, sans-serif" font-size="15" font-weight="700" letter-spacing="1.5">САМОСТІЙНО УКРАЇНСЬКОЮ</text>
  <text x="60" y="122" fill="#fff4e8" font-family="Arial, Helvetica, sans-serif" font-size="29" font-weight="700" letter-spacing="1">УКРАЇНСЬКА ЧИТАНКА</text>
  <text x="57" y="304" fill="#ffffff" font-family="Arial, Helvetica, sans-serif" font-size="168" font-weight="900" letter-spacing="-8">B1</text>
  <text x="65" y="347" fill="#ffd58a" font-family="Arial, Helvetica, sans-serif" font-size="23" font-weight="700" letter-spacing="4">ЗВ’ЯЗНЕ МОВЛЕННЯ</text>

  <circle cx="462" cy="270" r="84" fill="url(#b1-sun)" opacity=".95"/>
  <circle cx="462" cy="270" r="60" fill="#783d63" opacity=".34"/>
  <g stroke="#fff4e8" stroke-width="5" opacity=".85">
    <path d="M409 270h106M462 217v106"/>
    <path d="M425 233l74 74M499 233l-74 74"/>
  </g>

  <g transform="translate(52 402)">
    <path d="M0 246C88 207 150 203 248 241v117C154 322 88 323 0 358z" fill="#fff4e8"/>
    <path d="M496 246c-88-39-150-43-248-5v117c94-36 160-35 248 0z" fill="#ffe0b4"/>
    <path d="M248 241v117" stroke="#c95368" stroke-width="8"/>
    <g fill="none" stroke="#783d63" stroke-width="6" stroke-linecap="round" opacity=".6">
      <path d="M35 273c58-18 108-17 171 3M35 305c58-18 108-17 171 3"/>
      <path d="M290 276c64-20 111-21 171-3M290 308c64-20 111-21 171-3"/>
    </g>
    <path d="M64 214C133 75 364 75 433 214" fill="none" stroke="#f0a16b" stroke-width="20"/>
    <path d="M64 214C133 75 364 75 433 214" fill="none" stroke="#fff4e8" stroke-width="5" stroke-dasharray="14 15"/>
    <path d="M93 215v58M405 215v58" stroke="#f0a16b" stroke-width="14"/>
    <g fill="#ffd58a" stroke="#34214f" stroke-width="5">
      <circle cx="67" cy="201" r="17"/><circle cx="151" cy="104" r="17"/><circle cx="248" cy="72" r="17"/>
      <circle cx="346" cy="104" r="17"/><circle cx="430" cy="201" r="17"/>
    </g>
    <path d="M67 201L151 104 248 72 346 104 430 201" fill="none" stroke="#ffd58a" stroke-width="5"/>
  </g>

  <rect x="60" y="766" width="480" height="2" fill="#f0a16b"/>
  <text x="300" y="820" fill="#fff4e8" text-anchor="middle" font-family="Arial, Helvetica, sans-serif" font-size="26" font-weight="800" letter-spacing="4">WORD HUNTER</text>
  <text x="300" y="848" fill="#ffd58a" text-anchor="middle" font-family="Arial, Helvetica, sans-serif" font-size="13" font-weight="700" letter-spacing="4">ORIGINALS</text>
</svg>
